<svg width="16" height="16" viewBox="0 0 16 16" fill="none" xmlns="http://www.w3.org/2000/svg">
<g clip-path="url(#clip0_55_56575)">
<path d="M4.12199 2.97305V4.12221H2.972C1.76618 4.12221 0.788672 5.09972 0.788672 6.30554V13.8055C0.788672 15.0113 1.76618 15.9888 2.972 15.9888H8.80531C10.0111 15.9888 10.9886 15.0113 10.9886 13.8055V12.6563H12.1386C13.3444 12.6563 14.3219 11.6788 14.3219 10.473V3.83267C14.3297 3.69582 14.2832 3.55359 14.1707 3.44105L14.0999 3.51176L14.1707 3.44104L11.6707 0.941055L11.6706 0.941026C11.5581 0.828538 11.4159 0.781929 11.279 0.789725H6.30532C5.0995 0.789725 4.12199 1.76723 4.12199 2.97305ZM9.12197 7.55287V8.80553C9.12197 9.09084 9.35332 9.32219 9.63864 9.32219C9.92395 9.32219 10.1553 9.09084 10.1553 8.80553V6.30554C10.1553 6.02019 9.92394 5.78887 9.63864 5.78887H7.13865C6.85334 5.78887 6.62198 6.02019 6.62198 6.30554C6.62198 6.59088 6.85334 6.8222 7.13865 6.8222H8.3913L4.27332 10.9401L4.27332 10.9401C4.07155 11.1419 4.07155 11.4691 4.27332 11.6709L4.27333 11.6709C4.4751 11.8726 4.80221 11.8726 5.00398 11.6709L5.00399 11.6709L9.12197 7.55287ZM2.972 5.15554H4.12199V7.13886C4.12199 7.42417 4.35332 7.65553 4.63866 7.65553C4.924 7.65553 5.15532 7.42426 5.15532 7.13886V2.97305C5.15532 2.33793 5.67019 1.82305 6.30532 1.82305H10.7886V3.80638C10.7886 4.09173 11.02 4.32304 11.3053 4.32304H13.2886V10.473C13.2886 11.1081 12.7737 11.623 12.1386 11.623H7.97198C7.68666 11.623 7.45531 11.8544 7.45531 12.1397C7.45531 12.425 7.68667 12.6563 7.97198 12.6563H9.9553V13.8055C9.9553 14.4406 9.44041 14.9555 8.80531 14.9555H2.972C2.33687 14.9555 1.822 14.4406 1.822 13.8055V6.30554C1.822 5.67041 2.33687 5.15554 2.972 5.15554ZM11.822 2.55373L12.558 3.28971H11.822V2.55373Z" fill="#525252" stroke="#525252" stroke-width="0.2"/>
</g>
<defs>
<clipPath id="clip0_55_56575">
<rect width="16" height="16" fill="white"/>
</clipPath>
</defs>
</svg>
