<svg width="16" height="16" viewBox="0 0 16 16" xmlns="http://www.w3.org/2000/svg"><g clip-path="url(#clip0_55_56565)"><path d="M15.2886 5.13855C15.6917 4.73542 15.9167 4.19792 15.9167 3.62605C15.9167 3.05417 15.6948 2.51667 15.2886 2.11355L13.6948 0.5198C13.2886 0.110425 12.7511 -0.11145 12.1792 -0.11145C11.6073 -0.11145 11.0698 0.110425 10.6667 0.516675L0.726051 10.4573C0.169801 11.0135 -0.123949 11.7792 -0.0801985 12.5635L-0.0833235 15.1073C-0.0833235 15.3135 -0.00207353 15.5135 0.144801 15.6604C0.291676 15.8073 0.488551 15.8885 0.697926 15.8885L3.24168 15.8854C4.02605 15.9292 4.79168 15.6354 5.34793 15.0792C5.65418 14.7729 5.65418 14.2792 5.34793 13.9729C5.04168 13.6667 4.54793 13.6667 4.24168 13.9729C3.99793 14.2167 3.6573 14.3448 3.31355 14.3229C3.29793 14.3229 3.27918 14.3198 3.26355 14.3198L1.47918 14.326L1.4823 12.5417C1.4823 12.526 1.4823 12.5073 1.47918 12.4917C1.4573 12.1479 1.58543 11.8073 1.82918 11.5635L10.1136 3.27917L12.5261 5.69167L6.30105 11.9167C5.9948 12.2229 5.9948 12.7167 6.30105 13.0229C6.6073 13.3292 7.10105 13.3292 7.4073 13.0229L15.2886 5.13855ZM11.2198 2.17292L11.7729 1.6198C11.8823 1.51042 12.0261 1.45105 12.1823 1.45105C12.3354 1.45105 12.4823 1.51042 12.5917 1.6198L14.1854 3.21355C14.4104 3.43855 14.4104 3.8073 14.1854 4.0323L13.6323 4.58542L11.2198 2.17292Z"/><path d="M15.1353 14.326H8.08838C7.65713 14.326 7.30713 14.676 7.30713 15.1073C7.30713 15.5385 7.65713 15.8885 8.08838 15.8885H15.1353C15.5665 15.8885 15.9165 15.5385 15.9165 15.1073C15.9165 14.676 15.5665 14.326 15.1353 14.326Z" fill="url(#paint1_linear_55_56565)"/></g><defs><linearGradient id="paint0_linear_55_56565" x1="15.9295" y1="-0.111451" x2="1.47237" y2="5.65299" gradientUnits="userSpaceOnUse"><stop offset="0.0116582" stop-color="#6302DD"/><stop offset="1" stop-color="#433FFF"/></linearGradient><linearGradient id="paint1_linear_55_56565" x1="15.9234" y1="14.326" x2="14.3762" y2="17.7253" gradientUnits="userSpaceOnUse"><stop offset="0.0116582" stop-color="#6302DD"/><stop offset="1" stop-color="#433FFF"/></linearGradient><clipPath id="clip0_55_56565"><rect width="16" height="16"/></clipPath></defs></svg>
