<svg width="16" height="16" viewBox="0 0 16 16" fill="none" xmlns="http://www.w3.org/2000/svg"><path d="M14.0286 3.6957H8.96455C8.75898 3.6957 8.5582 3.61129 8.41955 3.46782L6.83946 1.80333C6.45964 1.42473 5.93999 1.22698 5.41368 1.23001H1.97137C0.884404 1.22998 0 2.11439 0 3.20132V12.7989C0 13.8859 0.884404 14.7703 1.97137 14.7703H14.0358H14.0377C15.124 14.7655 16.0048 13.8768 16 12.7929V5.66704C16 4.58007 15.1156 3.6957 14.0286 3.6957ZM14.7943 12.7953C14.7961 13.2173 14.4543 13.5627 14.0347 13.5646H1.97137C1.54937 13.5646 1.20575 13.2209 1.20575 12.7989V3.20132C1.20575 2.77932 1.54937 2.4357 1.97137 2.43508H5.42936C5.43599 2.43508 5.44261 2.43508 5.44927 2.43508C5.65061 2.43508 5.84596 2.51526 5.97736 2.64548L7.54902 4.30213C7.91795 4.68313 8.43401 4.90138 8.96455 4.90138H14.0286C14.4506 4.90138 14.7942 5.24501 14.7942 5.66701V12.7953H14.7943Z" fill="black"/></svg>
