<svg width="80" height="72" viewBox="0 0 80 72" fill="none" xmlns="http://www.w3.org/2000/svg">
<path d="M30.9762 32.5219L15.688 31.8516L33.1192 30.3395C32.1988 31.1769 31.7283 31.5292 30.9762 32.5219Z" fill="#9CA1A8"/>
<path d="M32.8407 39.3114L13.1308 38.3428C13.1041 38.3415 13.103 38.3019 13.131 38.2997L33.9007 37.2067C33.5083 37.8852 33.1518 38.586 32.8407 39.3102L32.8407 39.3114Z" fill="#9CA1A8"/>
<path d="M38.6864 44.7847C38.6874 44.5192 38.6965 44.255 38.7068 43.9919L6.6941 44.8385L38.7089 45.659C38.696 45.3691 38.6865 45.0792 38.6864 44.7858L38.6864 44.7847Z" fill="#9CA1A8"/>
<path d="M32.7833 50.3334L13.0745 51.3183C13.0477 51.3194 13.0476 51.3601 13.0743 51.3614L33.8455 52.4373C33.4533 51.7595 33.0961 51.0586 32.7833 50.3345L32.7833 50.3334Z" fill="#9CA1A8"/>
<path d="M32.4823 57.1081L17.1951 57.7906L34.627 59.288C33.7057 58.4512 33.2354 58.1003 32.4835 57.107L32.4823 57.1081Z" fill="#9CA1A8"/>
<g filter="url(#filter0_dd_420_3409)">
<path fill-rule="evenodd" clip-rule="evenodd" d="M25.8301 43.0379V48.2794L37.8735 48.1239L37.8999 50.1663L25.8301 50.3221V54.3808C25.8301 56.1519 26.535 57.8505 27.7898 59.1029C29.0446 60.3554 30.7465 61.0589 32.5211 61.0589H70.3671C72.1417 61.0589 73.8436 60.3554 75.0984 59.1029C76.3532 57.8505 77.0581 56.1519 77.0581 54.3808V30.5463C77.0581 29.447 76.7862 28.3646 76.2665 27.3954C75.7468 26.4261 74.9954 25.5999 74.079 24.99L67.684 20.7294L61.6169 16.6924L55.1568 12.3933C54.0576 11.6618 52.766 11.2715 51.4449 11.2715C50.1238 11.2715 48.8323 11.6618 47.7331 12.3933L28.8093 24.985C27.8921 25.5954 27.1403 26.4224 26.6205 27.3926C26.1008 28.3628 25.8293 29.4461 25.8301 30.5463V33.4276L35.6508 33.3008L35.6773 35.3432L25.8301 35.4703V40.9961L47.7325 40.7133L47.7589 42.7547L25.8301 43.0379ZM39.4126 35.9892C40.3543 35.9771 41.1077 35.2054 41.0955 34.2655C41.0833 33.3257 40.3102 32.5737 39.3685 32.5859C38.4268 32.598 37.6734 33.3697 37.6856 34.3096C37.6978 35.2495 38.4709 36.0014 39.4126 35.9892ZM39.438 37.9462C41.4627 37.9201 43.0824 36.261 43.0562 34.2402C43.0301 32.2194 41.3678 30.6027 39.3431 30.6289C37.3185 30.655 35.6987 32.3141 35.7249 34.3349C35.7511 36.3557 37.4133 37.9723 39.438 37.9462ZM53.177 41.6774C53.1891 42.6173 52.4357 43.389 51.4941 43.4011C50.5524 43.4133 49.7792 42.6613 49.7671 41.7214C49.7549 40.7816 50.5083 40.0099 51.4499 39.9978C52.3916 39.9856 53.1648 40.7375 53.177 41.6774ZM55.1377 41.6521C55.1639 43.6719 53.5441 45.3319 51.5194 45.3581C49.4947 45.3842 47.8325 43.7676 47.8063 41.7468C47.7801 39.726 49.3999 38.0669 51.4246 38.0408C53.4493 38.0146 55.1115 39.6313 55.1377 41.6521ZM41.6353 50.8121C42.577 50.7999 43.3303 50.0283 43.3181 49.0884C43.306 48.1485 42.5328 47.3965 41.5911 47.4087C40.6495 47.4209 39.8961 48.1925 39.9083 49.1324C39.9204 50.0723 40.6936 50.8242 41.6353 50.8121ZM41.6606 52.769C43.6853 52.7429 45.3051 51.0839 45.2789 49.0631C45.2527 47.0433 43.5905 45.4266 41.5658 45.4528C39.5411 45.4789 37.9213 47.1369 37.9475 49.1577C37.9737 51.1785 39.6359 52.7952 41.6606 52.769Z" fill="#9CA1A8"/>
</g>
<defs>
<filter id="filter0_dd_420_3409" x="23.4107" y="9.65858" width="56.0668" height="54.6263" filterUnits="userSpaceOnUse" color-interpolation-filters="sRGB">
<feFlood flood-opacity="0" result="BackgroundImageFix"/>
<feColorMatrix in="SourceAlpha" type="matrix" values="0 0 0 0 0 0 0 0 0 0 0 0 0 0 0 0 0 0 127 0" result="hardAlpha"/>
<feOffset dy="0.806452"/>
<feGaussianBlur stdDeviation="1.20968"/>
<feComposite in2="hardAlpha" operator="out"/>
<feColorMatrix type="matrix" values="0 0 0 0 0 0 0 0 0 0.00784314 0 0 0 0 0.188235 0 0 0 0.1 0"/>
<feBlend mode="normal" in2="BackgroundImageFix" result="effect1_dropShadow_420_3409"/>
<feColorMatrix in="SourceAlpha" type="matrix" values="0 0 0 0 0 0 0 0 0 0 0 0 0 0 0 0 0 0 127 0" result="hardAlpha"/>
<feMorphology radius="0.806452" operator="erode" in="SourceAlpha" result="effect2_dropShadow_420_3409"/>
<feOffset dy="0.806452"/>
<feGaussianBlur stdDeviation="0.806452"/>
<feComposite in2="hardAlpha" operator="out"/>
<feColorMatrix type="matrix" values="0 0 0 0 0 0 0 0 0 0.00784314 0 0 0 0 0.188235 0 0 0 0.1 0"/>
<feBlend mode="normal" in2="effect1_dropShadow_420_3409" result="effect2_dropShadow_420_3409"/>
<feBlend mode="normal" in="SourceGraphic" in2="effect2_dropShadow_420_3409" result="shape"/>
</filter>
</defs>
</svg>
