<svg width="16" height="16" viewBox="0 0 16 16" xmlns="http://www.w3.org/2000/svg"><g id="trash" clip-path="url(#clip0_42_36385)"><path id="Trash" d="M13.76 3.68014H10.88V2.24014C10.88 1.44606 10.2341 0.800139 9.44001 0.800139H6.56001C5.76593 0.800139 5.12001 1.44606 5.12001 2.24014V3.68014H2.24001C1.97489 3.68014 1.76001 3.89502 1.76001 4.16014C1.76001 4.42526 1.97489 4.64014 2.24001 4.64014H3.20001V12.8001C3.20001 14.1235 4.27665 15.2001 5.60001 15.2001H10.4C11.7234 15.2001 12.8 14.1235 12.8 12.8001V4.64014H13.76C14.0251 4.64014 14.24 4.42526 14.24 4.16014C14.24 3.89502 14.0251 3.68014 13.76 3.68014ZM6.08001 2.24014C6.08001 1.9755 6.29537 1.76014 6.56001 1.76014H9.44001C9.70465 1.76014 9.92001 1.9755 9.92001 2.24014V3.68014H6.08001V2.24014ZM11.84 12.8001C11.84 13.5942 11.1941 14.2401 10.4 14.2401H5.60001C4.80593 14.2401 4.16001 13.5942 4.16001 12.8001V4.64014H11.84V12.8001ZM6.08001 11.3601V7.52014C6.08001 7.25502 6.29489 7.04014 6.56001 7.04014C6.82513 7.04014 7.04001 7.25502 7.04001 7.52014V11.3601C7.04001 11.6253 6.82513 11.8401 6.56001 11.8401C6.29489 11.8401 6.08001 11.6253 6.08001 11.3601ZM8.96001 11.3601V7.52014C8.96001 7.25502 9.17489 7.04014 9.44001 7.04014C9.70513 7.04014 9.92001 7.25502 9.92001 7.52014V11.3601C9.92001 11.6253 9.70513 11.8401 9.44001 11.8401C9.17489 11.8401 8.96001 11.6253 8.96001 11.3601Z"/></g><defs><clipPath id="clip0_42_36385"><rect width="16" height="16"/></clipPath></defs></svg>
