<svg width="16" height="16" viewBox="0 0 16 16" fill="none" xmlns="http://www.w3.org/2000/svg">
<path d="M14.5 4.5H13.5V5.5H14.5V4.5Z" fill="#525252"/>
<path d="M14.5 4H13.5C13.2239 4 13 4.22386 13 4.5V5.5C13 5.77614 13.2239 6 13.5 6H14.5C14.7761 6 15 5.77614 15 5.5V4.5C15 4.22386 14.7761 4 14.5 4Z" fill="#525252"/>
<path d="M11 11.5H2C1.86739 11.5 1.74021 11.4473 1.64645 11.3536C1.55268 11.2598 1.5 11.1326 1.5 11V2C1.5 1.86739 1.55268 1.74021 1.64645 1.64645C1.74021 1.55268 1.86739 1.5 2 1.5H11C11.1326 1.5 11.2598 1.55268 11.3536 1.64645C11.4473 1.74021 11.5 1.86739 11.5 2V11C11.5 11.1326 11.4473 11.2598 11.3536 11.3536C11.2598 11.4473 11.1326 11.5 11 11.5ZM2.5 10.5H10.5V2.5H2.5V10.5Z" fill="#525252"/>
<path d="M14 14.5H5C4.86739 14.5 4.74021 14.4473 4.64645 14.3536C4.55268 14.2598 4.5 14.1326 4.5 14V11C4.5 10.8674 4.55268 10.7402 4.64645 10.6464C4.74021 10.5527 4.86739 10.5 5 10.5C5.13261 10.5 5.25979 10.5527 5.35355 10.6464C5.44732 10.7402 5.5 10.8674 5.5 11V13.5H13.5V5.5H11C10.8674 5.5 10.7402 5.44732 10.6464 5.35355C10.5527 5.25979 10.5 5.13261 10.5 5C10.5 4.86739 10.5527 4.74021 10.6464 4.64645C10.7402 4.55268 10.8674 4.5 11 4.5H14C14.1326 4.5 14.2598 4.55268 14.3536 4.64645C14.4473 4.74021 14.5 4.86739 14.5 5V14C14.5 14.1326 14.4473 14.2598 14.3536 14.3536C14.2598 14.4473 14.1326 14.5 14 14.5Z" fill="#525252"/>
<path d="M11.5 1.5H10.5V2.5H11.5V1.5Z" fill="#525252"/>
<path d="M11.5 1H10.5C10.2239 1 10 1.22386 10 1.5V2.5C10 2.77614 10.2239 3 10.5 3H11.5C11.7761 3 12 2.77614 12 2.5V1.5C12 1.22386 11.7761 1 11.5 1Z" fill="#525252"/>
<path d="M2.5 1.5H1.5V2.5H2.5V1.5Z" fill="#525252"/>
<path d="M2.5 1H1.5C1.22386 1 1 1.22386 1 1.5V2.5C1 2.77614 1.22386 3 1.5 3H2.5C2.77614 3 3 2.77614 3 2.5V1.5C3 1.22386 2.77614 1 2.5 1Z" fill="#525252"/>
<path d="M5.5 13.5H4.5V14.5H5.5V13.5Z" fill="#525252"/>
<path d="M5.5 13H4.5C4.22386 13 4 13.2239 4 13.5V14.5C4 14.7761 4.22386 15 4.5 15H5.5C5.77614 15 6 14.7761 6 14.5V13.5C6 13.2239 5.77614 13 5.5 13Z" fill="#525252"/>
<path d="M2.5 10.5H1.5V11.5H2.5V10.5Z" fill="#525252"/>
<path d="M2.5 10H1.5C1.22386 10 1 10.2239 1 10.5V11.5C1 11.7761 1.22386 12 1.5 12H2.5C2.77614 12 3 11.7761 3 11.5V10.5C3 10.2239 2.77614 10 2.5 10Z" fill="#525252"/>
<path d="M11.5 10.5H10.5V11.5H11.5V10.5Z" fill="#525252"/>
<path d="M11.5 10H10.5C10.2239 10 10 10.2239 10 10.5V11.5C10 11.7761 10.2239 12 10.5 12H11.5C11.7761 12 12 11.7761 12 11.5V10.5C12 10.2239 11.7761 10 11.5 10Z" fill="#525252"/>
<path d="M14.5 13.5H13.5V14.5H14.5V13.5Z" fill="#525252"/>
<path d="M14.5 13H13.5C13.2239 13 13 13.2239 13 13.5V14.5C13 14.7761 13.2239 15 13.5 15H14.5C14.7761 15 15 14.7761 15 14.5V13.5C15 13.2239 14.7761 13 14.5 13Z" fill="#525252"/>
</svg>
